<svg width="2325" height="340" viewBox="360 320 2325 340" fill="none" xmlns="http://www.w3.org/2000/svg">
<path d="M635.266 539.464L471.043 346.182C468.924 343.767 467.939 341.202 467.939 338.411C467.939 335.318 469.075 332.753 471.346 330.867C473.542 328.981 476.571 328 480.432 328H633.676C640.339 328 645.714 330.414 649.878 335.242L730.665 427.659C732.785 430.45 733.92 434.071 734.072 438.598C734.223 443.125 733.087 446.746 730.665 449.537L651.923 537.88C649.878 540.369 647.077 541.803 643.594 542.331C640.111 542.859 637.386 541.878 635.266 539.464Z" fill="#FF5454"/>
<path d="M541.987 644.404L370.42 446.444C367.998 443.653 366.862 440.031 367.013 435.58C367.241 431.054 368.528 427.433 370.95 424.641L426.221 360.214C429.023 357.121 431.975 355.536 435.08 355.536C438.865 355.536 442.045 357.121 444.468 360.214L617.095 562.851C619.139 565.265 620.199 567.83 620.199 570.395C620.199 573.036 619.215 575.525 617.095 577.939L558.72 644.404C556.6 647.195 553.95 648.553 550.618 648.553C547.287 648.553 544.41 647.195 541.987 644.404Z" fill="#FF5454"/>
<g clip-path="url(#clip0_6317_73594)">
<path d="M2178.87 594.988C2166.02 594.988 2154.69 591.889 2144.79 585.617C2134.89 579.345 2127.1 570.805 2121.36 559.848C2115.62 548.89 2112.74 536.497 2112.74 522.667C2112.74 508.763 2115.62 496.445 2121.36 485.714C2127.1 474.983 2134.89 466.67 2144.79 460.7C2154.69 454.806 2166.02 451.859 2178.87 451.859C2197.91 451.859 2213.78 458.433 2226.48 471.658C2239.17 484.883 2245.45 501.81 2245.45 522.667C2245.45 536.194 2242.57 548.512 2236.83 559.621C2231.09 570.73 2223.15 579.42 2212.87 585.617C2202.75 591.814 2191.34 594.988 2178.87 594.988ZM1906.21 651.665C1928.73 651.665 1949.29 646.602 1967.88 636.551C1986.47 626.5 2001.05 612.822 2011.86 595.441C2013.98 592.343 2013.07 589.698 2009.29 587.657L1966.59 565.289C1963.12 563.551 1960.32 564.457 1958.28 567.858C1954.12 575.868 1947.25 582.292 1937.73 587.128C1928.2 591.965 1918 594.383 1907.27 594.383C1888.23 594.383 1872.51 587.657 1860.19 574.055C1847.87 560.528 1841.75 543.147 1841.75 521.987C1841.75 500.45 1848.02 483.22 1860.49 470.222C1872.96 457.224 1888.61 450.725 1907.35 450.725C1920.19 450.725 1931.53 453.748 1941.43 459.869C1951.33 465.915 1958.58 473.925 1963.27 483.825C1967.95 493.724 1969.24 504.38 1967.2 515.866L1969.77 500.752H1832.91L1840.17 545.489H2021.76C2025.54 545.489 2027.8 543.6 2028.48 539.746C2028.86 533.474 2029.17 527.277 2029.54 521.005C2029.54 497.805 2024.4 476.343 2014.2 456.771C2004 437.198 1989.57 421.706 1970.98 410.446C1952.39 399.187 1930.85 393.519 1906.21 393.519C1881.96 393.519 1859.89 399.262 1840.09 410.673C1820.29 422.16 1804.87 437.727 1793.77 457.526C1782.66 477.326 1777.14 499.014 1777.14 522.592C1777.14 547.228 1782.58 569.445 1793.54 589.169C1804.5 608.968 1819.76 624.309 1839.33 635.191C1858.91 646.224 1881.2 651.665 1906.21 651.665ZM1604.39 652.194C1617.54 652.194 1629.78 649.927 1641.04 645.393C1652.3 640.858 1661.44 635.342 1668.4 628.767C1675.35 622.193 1679.66 616.071 1681.39 610.555V640.254C1681.39 641.992 1682 643.503 1683.21 644.712C1684.42 645.922 1685.93 646.526 1687.67 646.526H1740.72C1742.45 646.526 1743.89 645.922 1745.17 644.712C1746.38 643.503 1746.99 641.992 1746.99 640.254V334.272C1746.99 332.534 1746.38 331.098 1745.17 329.814C1743.97 328.605 1742.45 328 1740.72 328H1687.67C1685.93 328 1684.42 328.605 1683.21 329.814C1682 331.023 1681.39 332.534 1681.39 334.272V431.53C1679.66 427.752 1675.2 422.764 1668.09 416.719C1660.99 410.673 1652 405.308 1641.04 400.622C1630.08 395.937 1618.07 393.594 1604.84 393.594C1582.32 393.594 1561.92 399.262 1543.71 410.522C1525.49 421.782 1511.06 437.274 1500.48 456.846C1489.9 476.419 1484.61 498.41 1484.61 522.667C1484.61 546.925 1489.9 568.992 1500.48 588.791C1511.06 608.59 1525.57 624.082 1543.93 635.342C1562.37 646.526 1582.55 652.194 1604.39 652.194ZM1614.82 594.988C1602.35 594.988 1591.01 591.889 1580.96 585.617C1570.91 579.345 1562.98 570.805 1557.31 559.848C1551.56 548.89 1548.69 536.497 1548.69 522.667C1548.69 508.763 1551.56 496.445 1557.31 485.714C1563.05 474.983 1570.91 466.67 1580.96 460.7C1591.01 454.806 1602.27 451.859 1614.82 451.859C1633.86 451.859 1649.73 458.433 1662.43 471.658C1675.12 484.883 1681.39 501.81 1681.39 522.667C1681.39 536.194 1678.52 548.512 1672.78 559.621C1667.04 570.73 1659.1 579.42 1648.82 585.617C1638.62 591.814 1627.29 594.988 1614.82 594.988ZM1396.19 646.451H1449.24C1450.98 646.451 1452.42 645.846 1453.7 644.637C1454.91 643.428 1455.52 641.916 1455.52 640.178V334.272C1455.52 332.534 1454.91 331.098 1453.7 329.814C1452.49 328.605 1450.98 328 1449.24 328H1396.19C1394.46 328 1393.02 328.605 1391.74 329.814C1390.53 331.023 1389.92 332.534 1389.92 334.272V640.254C1389.92 641.992 1390.53 643.503 1391.74 644.712C1393.02 645.846 1394.46 646.451 1396.19 646.451ZM1228.66 593.93C1209.23 593.93 1192.99 587.431 1179.99 574.433C1166.99 561.435 1160.49 544.356 1160.49 523.196C1160.49 502.037 1166.99 484.883 1179.99 471.658C1192.99 458.509 1209.23 451.859 1228.66 451.859C1248.08 451.859 1264.32 458.433 1277.32 471.658C1290.32 484.883 1296.82 502.037 1296.82 523.196C1296.82 544.356 1290.4 561.435 1277.55 574.433C1264.78 587.431 1248.46 593.93 1228.66 593.93ZM1228.66 652.194C1253.97 652.194 1276.72 646.451 1296.82 635.039C1316.92 623.553 1332.64 608.061 1343.9 588.489C1355.16 568.916 1360.83 547.152 1360.83 523.196C1360.83 499.241 1355.16 477.401 1343.9 457.602C1332.64 437.803 1316.92 422.235 1296.82 410.749C1276.72 399.338 1253.97 393.594 1228.66 393.594C1203.34 393.594 1180.59 399.338 1160.49 410.749C1140.39 422.235 1124.67 437.803 1113.41 457.602C1102.15 477.401 1096.48 499.241 1096.48 523.196C1096.48 547.152 1102.15 568.916 1113.41 588.489C1124.67 608.061 1140.39 623.628 1160.49 635.039C1180.59 646.451 1203.34 652.194 1228.66 652.194ZM840.454 646.451H893.504C895.242 646.451 896.678 645.846 897.963 644.637C899.172 643.428 899.777 641.916 899.777 640.178V513.75C899.777 495.009 904.764 480.122 914.891 469.013C924.941 457.904 937.939 452.388 953.885 452.388C968.772 452.388 980.561 457.224 989.251 466.973C997.942 476.721 1002.25 490.399 1002.25 508.082V640.254C1002.25 641.992 1002.85 643.503 1004.06 644.712C1005.27 645.922 1006.71 646.526 1008.52 646.526H1061.57C1063.31 646.526 1064.75 645.922 1066.03 644.712C1067.24 643.503 1067.84 641.992 1067.84 640.254V497.654C1067.84 470.978 1062.7 449.894 1052.5 434.402C1042.3 418.986 1030.13 408.331 1016.08 402.436C1002.02 396.542 988.269 393.594 974.742 393.594C958.116 393.594 942.776 396.844 928.72 403.192C914.664 409.615 905.067 417.852 899.852 427.903V334.272C899.852 332.534 899.248 331.098 898.039 329.814C896.829 328.605 895.318 328 893.58 328H840.53C838.792 328 837.356 328.605 836.071 329.814C834.862 331.023 834.258 332.534 834.258 334.272V640.254C834.258 641.992 834.862 643.503 836.071 644.712C837.281 645.846 838.716 646.451 840.454 646.451ZM2168.44 652.194C2181.59 652.194 2193.83 649.927 2205.09 645.393C2216.35 640.858 2225.5 635.342 2232.45 628.767C2239.4 622.193 2243.71 616.071 2245.45 610.555V640.254C2245.45 641.992 2246.05 643.503 2247.26 644.712C2248.47 645.922 2249.9 646.526 2251.72 646.526H2304.77C2306.51 646.526 2307.94 645.922 2309.23 644.712C2310.44 643.503 2311.04 641.992 2311.04 640.254V334.272C2311.04 332.534 2310.44 331.098 2309.23 329.814C2308.02 328.605 2306.51 328 2304.77 328H2251.72C2249.98 328 2248.47 328.605 2247.26 329.814C2246.05 331.023 2245.45 332.534 2245.45 334.272V431.53C2243.71 427.752 2239.25 422.764 2232.14 416.719C2225.04 410.673 2216.05 405.308 2205.09 400.622C2194.13 395.937 2182.12 393.594 2168.89 393.594C2146.37 393.594 2125.97 399.262 2107.76 410.522C2089.55 421.782 2075.11 437.274 2064.61 456.846C2054.03 476.419 2048.74 498.41 2048.74 522.667C2048.74 546.925 2054.03 568.992 2064.61 588.791C2075.19 608.59 2089.7 624.082 2108.06 635.342C2126.5 646.526 2146.6 652.194 2168.44 652.194Z" fill="#111827"/>
</g>
<defs>
<clipPath id="clip0_6317_73594">
<rect width="1476.74" height="324.431" fill="white" transform="translate(834.258 328)"/>
</clipPath>
</defs>
</svg>
