<svg width="1110" height="984" viewBox="0 0 1110 984" fill="none" xmlns="http://www.w3.org/2000/svg">
<path d="M641.781 544.377L473.57 346.604C471.399 344.134 470.391 341.509 470.391 338.653C470.391 335.488 471.554 332.863 473.881 330.933C476.13 329.004 479.232 328 483.187 328H640.152C646.977 328 652.483 330.47 656.748 335.411L739.496 429.974C741.668 432.83 742.831 436.536 742.986 441.167C743.141 445.799 741.978 449.504 739.496 452.361L658.842 542.755C656.748 545.303 653.879 546.77 650.312 547.31C646.744 547.85 643.952 546.847 641.781 544.377Z" fill="#FF5454"/>
<path d="M546.237 651.754L370.504 449.196C368.022 446.339 366.859 442.634 367.014 438.08C367.246 433.448 368.565 429.743 371.046 426.886L427.659 360.962C430.529 357.797 433.553 356.176 436.733 356.176C440.611 356.176 443.868 357.797 446.35 360.962L623.168 568.307C625.262 570.777 626.348 573.402 626.348 576.026C626.348 578.728 625.34 581.276 623.168 583.746L563.376 651.754C561.204 654.611 558.49 656 555.078 656C551.665 656 548.718 654.611 546.237 651.754Z" fill="#FF5454"/>
</svg>
